solid 
facet normal 0.57735026 0.57735026 0.57735026
 outer loop
  vertex 9.879402 9 9
  vertex 9 9.879402 9
  vertex 9 9 9.879402
 endloop
endfacet
facet normal 0.67211145 0.67211145 0.3106968
 outer loop
  vertex 9 9.879402 9
  vertex 9.879402 9 9
  vertex 10.803942 9 7
 endloop
endfacet
facet normal 0.6721114 0.6721114 0.31069678
 outer loop
  vertex 9 9.879402 9
  vertex 10.803942 9 7
  vertex 9 10.803942 7
 endloop
endfacet
facet normal 0.70710677 0.70710677 -0
 outer loop
  vertex 9 10.803942 7
  vertex 10.803942 9 7
  vertex 10.803942 9 5
 endloop
endfacet
facet normal 0.70710677 0.70710677 0
 outer loop
  vertex 9 10.803942 7
  vertex 10.803942 9 5
  vertex 9 10.803942 5
 endloop
endfacet
facet normal 0.8718588 0.4897574 0
 outer loop
  vertex 10.803942 9 5
  vertex 10.803942 9 7
  vertex 11 8.65098 7
 endloop
endfacet
facet normal 0.8718588 0.4897574 -0
 outer loop
  vertex 10.803942 9 5
  vertex 11 8.65098 7
  vertex 11 8.65098 5
 endloop
endfacet
facet normal 0.94426703 0.32918042 -0
 outer loop
  vertex 11 8.65098 7
  vertex 11.575547 7 7
  vertex 11.575547 7 5
 endloop
endfacet
facet normal 0.94426703 0.32918042 0
 outer loop
  vertex 11 8.65098 7
  vertex 11.575547 7 5
  vertex 11 8.65098 5
 endloop
endfacet
facet normal 0.8969216 0.31267533 -0.31267542
 outer loop
  vertex 11 8.65098 5
  vertex 11.575547 7 5
  vertex 11 7 3.3490205
 endloop
endfacet
facet normal 0.94426703 0 -0.3291805
 outer loop
  vertex 11 7 3.3490205
  vertex 11.575547 7 5
  vertex 11.575547 5 5
 endloop
endfacet
facet normal 0.94426703 0 -0.3291805
 outer loop
  vertex 11 7 3.3490205
  vertex 11.575547 5 5
  vertex 11 5 3.3490205
 endloop
endfacet
facet normal 0.8969216 -0.31267542 -0.31267542
 outer loop
  vertex 11.575547 5 5
  vertex 11 3.3490205 5
  vertex 11 5 3.3490205
 endloop
endfacet
facet normal 0.94426703 -0.3291805 0
 outer loop
  vertex 11.575547 5 5
  vertex 11.575547 5 7
  vertex 11 3.3490205 7
 endloop
endfacet
facet normal 0.94426703 -0.3291805 0
 outer loop
  vertex 11.575547 5 5
  vertex 11 3.3490205 7
  vertex 11 3.3490205 5
 endloop
endfacet
facet normal 0.8969216 -0.31267542 0.31267533
 outer loop
  vertex 11 3.3490205 7
  vertex 11.575547 5 7
  vertex 11 5 8.65098
 endloop
endfacet
facet normal 0.94426703 0 0.32918042
 outer loop
  vertex 11.575547 5 7
  vertex 11.575547 7 7
  vertex 11 7 8.65098
 endloop
endfacet
facet normal 0.94426703 -0 0.32918042
 outer loop
  vertex 11.575547 5 7
  vertex 11 7 8.65098
  vertex 11 5 8.65098
 endloop
endfacet
facet normal 0.8718588 -0 0.4897574
 outer loop
  vertex 11 7 8.65098
  vertex 10.803942 7 9
  vertex 10.803942 5 9
 endloop
endfacet
facet normal 0.8718588 0 0.4897574
 outer loop
  vertex 11 7 8.65098
  vertex 10.803942 5 9
  vertex 11 5 8.65098
 endloop
endfacet
facet normal 0.70710677 0 0.70710677
 outer loop
  vertex 10.803942 5 9
  vertex 10.803942 7 9
  vertex 9 7 10.803942
 endloop
endfacet
facet normal 0.70710677 -0 0.70710677
 outer loop
  vertex 10.803942 5 9
  vertex 9 7 10.803942
  vertex 9 5 10.803942
 endloop
endfacet
facet normal 0.4897574 -0 0.8718588
 outer loop
  vertex 9 7 10.803942
  vertex 8.65098 7 11
  vertex 8.65098 5 11
 endloop
endfacet
facet normal 0.4897574 0 0.8718588
 outer loop
  vertex 9 7 10.803942
  vertex 8.65098 5 11
  vertex 9 5 10.803942
 endloop
endfacet
facet normal 0.32918042 0 0.94426703
 outer loop
  vertex 8.65098 5 11
  vertex 8.65098 7 11
  vertex 7 7 11.575547
 endloop
endfacet
facet normal 0.32918042 -0 0.94426703
 outer loop
  vertex 8.65098 5 11
  vertex 7 7 11.575547
  vertex 7 5 11.575547
 endloop
endfacet
facet normal 0.31267533 -0.31267542 0.8969216
 outer loop
  vertex 7 3.3490205 11
  vertex 8.65098 5 11
  vertex 7 5 11.575547
 endloop
endfacet
facet normal 0 -0.3291805 0.94426703
 outer loop
  vertex 5 3.3490205 11
  vertex 7 3.3490205 11
  vertex 7 5 11.575547
 endloop
endfacet
facet normal 0 -0.3291805 0.94426703
 outer loop
  vertex 5 3.3490205 11
  vertex 7 5 11.575547
  vertex 5 5 11.575547
 endloop
endfacet
facet normal 0 -0.48975688 0.8718591
 outer loop
  vertex 7 3 10.803942
  vertex 7 3.3490205 11
  vertex 5 3.3490205 11
 endloop
endfacet
facet normal 0 -0.48975688 0.8718591
 outer loop
  vertex 7 3 10.803942
  vertex 5 3.3490205 11
  vertex 5 3 10.803942
 endloop
endfacet
facet normal 0 -0.70710677 0.70710677
 outer loop
  vertex 5 1.1960583 9
  vertex 7 1.1960583 9
  vertex 7 3 10.803942
 endloop
endfacet
facet normal 0 -0.70710677 0.70710677
 outer loop
  vertex 5 1.1960583 9
  vertex 7 3 10.803942
  vertex 5 3 10.803942
 endloop
endfacet
facet normal 0 -0.8718588 0.4897574
 outer loop
  vertex 7 1 8.65098
  vertex 7 1.1960583 9
  vertex 5 1.1960583 9
 endloop
endfacet
facet normal 0 -0.8718588 0.4897574
 outer loop
  vertex 7 1 8.65098
  vertex 5 1.1960583 9
  vertex 5 1 8.65098
 endloop
endfacet
facet normal 0 -0.94426703 0.32918042
 outer loop
  vertex 5 0.42445278 7
  vertex 7 0.42445278 7
  vertex 7 1 8.65098
 endloop
endfacet
facet normal 0 -0.94426703 0.32918042
 outer loop
  vertex 5 0.42445278 7
  vertex 7 1 8.65098
  vertex 5 1 8.65098
 endloop
endfacet
facet normal 0 -1 0
 outer loop
  vertex 7 0.42445278 5
  vertex 7 0.42445278 7
  vertex 5 0.42445278 7
 endloop
endfacet
facet normal 0 -1 0
 outer loop
  vertex 7 0.42445278 5
  vertex 5 0.42445278 7
  vertex 5 0.42445278 5
 endloop
endfacet
facet normal 0 -0.94426703 -0.3291805
 outer loop
  vertex 7 1 3.3490205
  vertex 7 0.42445278 5
  vertex 5 0.42445278 5
 endloop
endfacet
facet normal 0 -0.94426703 -0.3291805
 outer loop
  vertex 7 1 3.3490205
  vertex 5 0.42445278 5
  vertex 5 1 3.3490205
 endloop
endfacet
facet normal -0 -0.8718591 -0.48975688
 outer loop
  vertex 5 1.1960583 3
  vertex 7 1.1960583 3
  vertex 7 1 3.3490205
 endloop
endfacet
facet normal 0 -0.8718591 -0.48975688
 outer loop
  vertex 5 1.1960583 3
  vertex 7 1 3.3490205
  vertex 5 1 3.3490205
 endloop
endfacet
facet normal 0 -0.70710677 -0.70710677
 outer loop
  vertex 7 3 1.1960583
  vertex 7 1.1960583 3
  vertex 5 1.1960583 3
 endloop
endfacet
facet normal 0 -0.70710677 -0.70710677
 outer loop
  vertex 7 3 1.1960583
  vertex 5 1.1960583 3
  vertex 5 3 1.1960583
 endloop
endfacet
facet normal -0 -0.48975688 -0.8718591
 outer loop
  vertex 5 3.3490205 1
  vertex 7 3.3490205 1
  vertex 7 3 1.1960583
 endloop
endfacet
facet normal 0 -0.48975688 -0.8718591
 outer loop
  vertex 5 3.3490205 1
  vertex 7 3 1.1960583
  vertex 5 3 1.1960583
 endloop
endfacet
facet normal 0 -0.3291805 -0.94426703
 outer loop
  vertex 7 5 0.42445278
  vertex 7 3.3490205 1
  vertex 5 3.3490205 1
 endloop
endfacet
facet normal 0 -0.3291805 -0.94426703
 outer loop
  vertex 7 5 0.42445278
  vertex 5 3.3490205 1
  vertex 5 5 0.42445278
 endloop
endfacet
facet normal 0 0 -1
 outer loop
  vertex 5 7 0.42445278
  vertex 7 7 0.42445278
  vertex 7 5 0.42445278
 endloop
endfacet
facet normal 0 0 -1
 outer loop
  vertex 5 7 0.42445278
  vertex 7 5 0.42445278
  vertex 5 5 0.42445278
 endloop
endfacet
facet normal 0 0.32918042 -0.94426703
 outer loop
  vertex 5 8.65098 1
  vertex 7 8.65098 1
  vertex 7 7 0.42445278
 endloop
endfacet
facet normal 0 0.32918042 -0.94426703
 outer loop
  vertex 5 8.65098 1
  vertex 7 7 0.42445278
  vertex 5 7 0.42445278
 endloop
endfacet
facet normal 0 0.4897574 -0.8718588
 outer loop
  vertex 7 9 1.1960583
  vertex 7 8.65098 1
  vertex 5 8.65098 1
 endloop
endfacet
facet normal 0 0.4897574 -0.8718588
 outer loop
  vertex 7 9 1.1960583
  vertex 5 8.65098 1
  vertex 5 9 1.1960583
 endloop
endfacet
facet normal 0 0.70710677 -0.70710677
 outer loop
  vertex 5 10.803942 3
  vertex 7 10.803942 3
  vertex 7 9 1.1960583
 endloop
endfacet
facet normal 0 0.70710677 -0.70710677
 outer loop
  vertex 5 10.803942 3
  vertex 7 9 1.1960583
  vertex 5 9 1.1960583
 endloop
endfacet
facet normal 0 0.8718591 -0.48975688
 outer loop
  vertex 7 11 3.3490205
  vertex 7 10.803942 3
  vertex 5 10.803942 3
 endloop
endfacet
facet normal 0 0.8718591 -0.48975688
 outer loop
  vertex 7 11 3.3490205
  vertex 5 10.803942 3
  vertex 5 11 3.3490205
 endloop
endfacet
facet normal 0 0.94426703 -0.3291805
 outer loop
  vertex 5 11.575547 5
  vertex 7 11.575547 5
  vertex 7 11 3.3490205
 endloop
endfacet
facet normal 0 0.94426703 -0.3291805
 outer loop
  vertex 5 11.575547 5
  vertex 7 11 3.3490205
  vertex 5 11 3.3490205
 endloop
endfacet
facet normal 0 1 -0
 outer loop
  vertex 5 11.575547 7
  vertex 7 11.575547 7
  vertex 7 11.575547 5
 endloop
endfacet
facet normal 0 1 -0
 outer loop
  vertex 5 11.575547 7
  vertex 7 11.575547 5
  vertex 5 11.575547 5
 endloop
endfacet
facet normal -0 0.94426703 0.32918042
 outer loop
  vertex 7 11 8.65098
  vertex 7 11.575547 7
  vertex 5 11.575547 7
 endloop
endfacet
facet normal 0 0.94426703 0.32918042
 outer loop
  vertex 7 11 8.65098
  vertex 5 11.575547 7
  vertex 5 11 8.65098
 endloop
endfacet
facet normal 0 0.8718588 0.4897574
 outer loop
  vertex 5 10.803942 9
  vertex 7 10.803942 9
  vertex 7 11 8.65098
 endloop
endfacet
facet normal -0 0.8718588 0.4897574
 outer loop
  vertex 5 10.803942 9
  vertex 7 11 8.65098
  vertex 5 11 8.65098
 endloop
endfacet
facet normal -0 0.70710677 0.70710677
 outer loop
  vertex 7 9 10.803942
  vertex 7 10.803942 9
  vertex 5 10.803942 9
 endloop
endfacet
facet normal 0 0.70710677 0.70710677
 outer loop
  vertex 7 9 10.803942
  vertex 5 10.803942 9
  vertex 5 9 10.803942
 endloop
endfacet
facet normal 0 0.4897574 0.8718588
 outer loop
  vertex 5 8.65098 11
  vertex 7 8.65098 11
  vertex 7 9 10.803942
 endloop
endfacet
facet normal -0 0.4897574 0.8718588
 outer loop
  vertex 5 8.65098 11
  vertex 7 9 10.803942
  vertex 5 9 10.803942
 endloop
endfacet
facet normal -0 0.32918042 0.94426703
 outer loop
  vertex 7 7 11.575547
  vertex 7 8.65098 11
  vertex 5 8.65098 11
 endloop
endfacet
facet normal 0 0.32918042 0.94426703
 outer loop
  vertex 7 7 11.575547
  vertex 5 8.65098 11
  vertex 5 7 11.575547
 endloop
endfacet
facet normal -0.31267542 0.31267533 0.8969216
 outer loop
  vertex 5 8.65098 11
  vertex 3.3490205 7 11
  vertex 5 7 11.575547
 endloop
endfacet
facet normal -0.3291805 0 0.94426703
 outer loop
  vertex 5 7 11.575547
  vertex 3.3490205 7 11
  vertex 3.3490205 5 11
 endloop
endfacet
facet normal -0.3291805 0 0.94426703
 outer loop
  vertex 5 7 11.575547
  vertex 3.3490205 5 11
  vertex 5 5 11.575547
 endloop
endfacet
facet normal -0.48975688 0 0.8718591
 outer loop
  vertex 3.3490205 5 11
  vertex 3.3490205 7 11
  vertex 3 7 10.803942
 endloop
endfacet
facet normal -0.48975688 0 0.8718591
 outer loop
  vertex 3.3490205 5 11
  vertex 3 7 10.803942
  vertex 3 5 10.803942
 endloop
endfacet
facet normal -0.70710677 0 0.70710677
 outer loop
  vertex 3 7 10.803942
  vertex 1.1960583 7 9
  vertex 1.1960583 5 9
 endloop
endfacet
facet normal -0.70710677 0 0.70710677
 outer loop
  vertex 3 7 10.803942
  vertex 1.1960583 5 9
  vertex 3 5 10.803942
 endloop
endfacet
facet normal -0.8718588 0 0.4897574
 outer loop
  vertex 1.1960583 5 9
  vertex 1.1960583 7 9
  vertex 1 7 8.65098
 endloop
endfacet
facet normal -0.8718588 0 0.4897574
 outer loop
  vertex 1.1960583 5 9
  vertex 1 7 8.65098
  vertex 1 5 8.65098
 endloop
endfacet
facet normal -0.80865175 0.45425153 0.37381527
 outer loop
  vertex 2.1205978 9 9
  vertex 1.1960583 9 7
  vertex 1 8.65098 7
 endloop
endfacet
facet normal -0.8289835 0.39546582 0.39546582
 outer loop
  vertex 2.1205978 9 9
  vertex 1 8.65098 7
  vertex 1 7 8.65098
 endloop
endfacet
facet normal -0.80865175 0.37381527 0.45425153
 outer loop
  vertex 1.1960583 7 9
  vertex 2.1205978 9 9
  vertex 1 7 8.65098
 endloop
endfacet
facet normal -0.8718588 0.4897574 0
 outer loop
  vertex 1 8.65098 7
  vertex 1.1960583 9 7
  vertex 1.1960583 9 5
 endloop
endfacet
facet normal -0.8718588 0.4897574 0
 outer loop
  vertex 1 8.65098 7
  vertex 1.1960583 9 5
  vertex 1 8.65098 5
 endloop
endfacet
facet normal -0.83700716 0.38692313 -0.38692313
 outer loop
  vertex 1.1960583 9 5
  vertex 2.1205978 9 3
  vertex 1.1960583 7 3
 endloop
endfacet
facet normal -0.7829962 0.43983918 -0.43983918
 outer loop
  vertex 1.1960583 9 5
  vertex 1.1960583 7 3
  vertex 1 7 3.3490205
 endloop
endfacet
facet normal -0.7829957 0.43983948 -0.4398396
 outer loop
  vertex 1 8.65098 5
  vertex 1.1960583 9 5
  vertex 1 7 3.3490205
 endloop
endfacet
facet normal -0.6721114 0.6721114 -0.31069678
 outer loop
  vertex 2.1205978 9 3
  vertex 1.1960583 9 5
  vertex 3 10.803942 5
 endloop
endfacet
facet normal -0.67211145 0.67211145 -0.3106968
 outer loop
  vertex 2.1205978 9 3
  vertex 3 10.803942 5
  vertex 3 9.879402 3
 endloop
endfacet
facet normal -0.57735026 0.57735026 -0.57735026
 outer loop
  vertex 2.1205978 9 3
  vertex 3 9.879402 3
  vertex 3 9 2.1205978
 endloop
endfacet
facet normal -0.8718591 0 -0.48975688
 outer loop
  vertex 1 7 3.3490205
  vertex 1.1960583 7 3
  vertex 1.1960583 5 3
 endloop
endfacet
facet normal -0.8718591 0 -0.48975688
 outer loop
  vertex 1 7 3.3490205
  vertex 1.1960583 5 3
  vertex 1 5 3.3490205
 endloop
endfacet
facet normal -0.70710677 -0 -0.70710677
 outer loop
  vertex 1.1960583 5 3
  vertex 1.1960583 7 3
  vertex 3 7 1.1960583
 endloop
endfacet
facet normal -0.70710677 0 -0.70710677
 outer loop
  vertex 1.1960583 5 3
  vertex 3 7 1.1960583
  vertex 3 5 1.1960583
 endloop
endfacet
facet normal -0.6721114 -0.31069678 -0.6721114
 outer loop
  vertex 2.1205978 3 3
  vertex 1.1960583 5 3
  vertex 3 5 1.1960583
 endloop
endfacet
facet normal -0.67211145 -0.3106968 -0.67211145
 outer loop
  vertex 2.1205978 3 3
  vertex 3 5 1.1960583
  vertex 3 3 2.1205978
 endloop
endfacet
facet normal -0.48975688 0 -0.8718591
 outer loop
  vertex 3 7 1.1960583
  vertex 3.3490205 7 1
  vertex 3.3490205 5 1
 endloop
endfacet
facet normal -0.48975688 0 -0.8718591
 outer loop
  vertex 3 7 1.1960583
  vertex 3.3490205 5 1
  vertex 3 5 1.1960583
 endloop
endfacet
facet normal -0.80865204 -0.45425105 -0.3738154
 outer loop
  vertex 2.1205978 3 3
  vertex 1.1960583 3 5
  vertex 1 3.3490205 5
 endloop
endfacet
facet normal -0.8289835 -0.39546573 -0.39546573
 outer loop
  vertex 2.1205978 3 3
  vertex 1 3.3490205 5
  vertex 1 5 3.3490205
 endloop
endfacet
facet normal -0.80865204 -0.3738154 -0.45425105
 outer loop
  vertex 1.1960583 5 3
  vertex 2.1205978 3 3
  vertex 1 5 3.3490205
 endloop
endfacet
facet normal -0.8718591 -0.48975688 -0
 outer loop
  vertex 1.1960583 3 5
  vertex 1.1960583 3 7
  vertex 1 3.3490205 7
 endloop
endfacet
facet normal -0.8718591 -0.48975688 0
 outer loop
  vertex 1.1960583 3 5
  vertex 1 3.3490205 7
  vertex 1 3.3490205 5
 endloop
endfacet
facet normal -0.70710677 -0.70710677 0
 outer loop
  vertex 3 1.1960583 7
  vertex 1.1960583 3 7
  vertex 1.1960583 3 5
 endloop
endfacet
facet normal -0.70710677 -0.70710677 0
 outer loop
  vertex 3 1.1960583 7
  vertex 1.1960583 3 5
  vertex 3 1.1960583 5
 endloop
endfacet
facet normal -0.48975688 -0.8718591 -0
 outer loop
  vertex 3.3490205 1 5
  vertex 3.3490205 1 7
  vertex 3 1.1960583 7
 endloop
endfacet
facet normal -0.48975688 -0.8718591 0
 outer loop
  vertex 3.3490205 1 5
  vertex 3 1.1960583 7
  vertex 3 1.1960583 5
 endloop
endfacet
facet normal -0.94426703 -0.3291805 0
 outer loop
  vertex 1 3.3490205 7
  vertex 0.42445278 5 7
  vertex 0.42445278 5 5
 endloop
endfacet
facet normal -0.94426703 -0.3291805 0
 outer loop
  vertex 1 3.3490205 7
  vertex 0.42445278 5 5
  vertex 1 3.3490205 5
 endloop
endfacet
facet normal -0.8969216 -0.31267542 0.31267533
 outer loop
  vertex 0.42445278 5 7
  vertex 1 3.3490205 7
  vertex 1 5 8.65098
 endloop
endfacet
facet normal -1 0 0
 outer loop
  vertex 0.42445278 5 7
  vertex 0.42445278 7 7
  vertex 0.42445278 7 5
 endloop
endfacet
facet normal -1 0 0
 outer loop
  vertex 0.42445278 5 7
  vertex 0.42445278 7 5
  vertex 0.42445278 5 5
 endloop
endfacet
facet normal -0.6721114 -0.6721114 -0.31069678
 outer loop
  vertex 3 1.1960583 5
  vertex 1.1960583 3 5
  vertex 2.1205978 3 3
 endloop
endfacet
facet normal -0.67211145 -0.67211145 -0.3106968
 outer loop
  vertex 3 1.1960583 5
  vertex 2.1205978 3 3
  vertex 3 2.1205978 3
 endloop
endfacet
facet normal -0.8969216 -0.31267542 -0.31267542
 outer loop
  vertex 1 3.3490205 5
  vertex 0.42445278 5 5
  vertex 1 5 3.3490205
 endloop
endfacet
facet normal -0.94426703 -0 -0.3291805
 outer loop
  vertex 0.42445278 5 5
  vertex 0.42445278 7 5
  vertex 1 7 3.3490205
 endloop
endfacet
facet normal -0.94426703 0 -0.3291805
 outer loop
  vertex 0.42445278 5 5
  vertex 1 7 3.3490205
  vertex 1 5 3.3490205
 endloop
endfacet
facet normal -0.8969216 0.31267533 -0.31267542
 outer loop
  vertex 0.42445278 7 5
  vertex 1 8.65098 5
  vertex 1 7 3.3490205
 endloop
endfacet
facet normal -0.70710677 0.70710677 0
 outer loop
  vertex 1.1960583 9 5
  vertex 1.1960583 9 7
  vertex 3 10.803942 7
 endloop
endfacet
facet normal -0.70710677 0.70710677 0
 outer loop
  vertex 1.1960583 9 5
  vertex 3 10.803942 7
  vertex 3 10.803942 5
 endloop
endfacet
facet normal -0.48975688 0.8718591 0
 outer loop
  vertex 3 10.803942 7
  vertex 3.3490205 11 7
  vertex 3.3490205 11 5
 endloop
endfacet
facet normal -0.48975688 0.8718591 0
 outer loop
  vertex 3 10.803942 7
  vertex 3.3490205 11 5
  vertex 3 10.803942 5
 endloop
endfacet
facet normal -0.94426703 0.32918042 0
 outer loop
  vertex 0.42445278 7 5
  vertex 0.42445278 7 7
  vertex 1 8.65098 7
 endloop
endfacet
facet normal -0.94426703 0.32918042 0
 outer loop
  vertex 0.42445278 7 5
  vertex 1 8.65098 7
  vertex 1 8.65098 5
 endloop
endfacet
facet normal -0.67211145 0.67211145 0.3106968
 outer loop
  vertex 1.1960583 9 7
  vertex 2.1205978 9 9
  vertex 3 9.879402 9
 endloop
endfacet
facet normal -0.6721114 0.6721114 0.31069678
 outer loop
  vertex 1.1960583 9 7
  vertex 3 9.879402 9
  vertex 3 10.803942 7
 endloop
endfacet
facet normal -0.57735026 0.57735026 0.57735026
 outer loop
  vertex 3 9.879402 9
  vertex 2.1205978 9 9
  vertex 3 9 9.879402
 endloop
endfacet
facet normal -0.83700716 -0.38692313 0.38692313
 outer loop
  vertex 1.1960583 3 7
  vertex 2.1205978 3 9
  vertex 1.1960583 5 9
 endloop
endfacet
facet normal -0.78299576 -0.43983954 0.43983954
 outer loop
  vertex 1.1960583 3 7
  vertex 1.1960583 5 9
  vertex 1 5 8.65098
 endloop
endfacet
facet normal -0.7829962 -0.43983918 0.43983907
 outer loop
  vertex 1 3.3490205 7
  vertex 1.1960583 3 7
  vertex 1 5 8.65098
 endloop
endfacet
facet normal -0.94426703 0 0.32918042
 outer loop
  vertex 1 7 8.65098
  vertex 0.42445278 7 7
  vertex 0.42445278 5 7
 endloop
endfacet
facet normal -0.94426703 0 0.32918042
 outer loop
  vertex 1 7 8.65098
  vertex 0.42445278 5 7
  vertex 1 5 8.65098
 endloop
endfacet
facet normal -0.67211145 0.3106968 0.67211145
 outer loop
  vertex 3 9 9.879402
  vertex 2.1205978 9 9
  vertex 1.1960583 7 9
 endloop
endfacet
facet normal -0.6721114 0.31069678 0.6721114
 outer loop
  vertex 3 9 9.879402
  vertex 1.1960583 7 9
  vertex 3 7 10.803942
 endloop
endfacet
facet normal -0.6721114 -0.31069678 0.6721114
 outer loop
  vertex 3 5 10.803942
  vertex 1.1960583 5 9
  vertex 2.1205978 3 9
 endloop
endfacet
facet normal -0.67211145 -0.3106968 0.67211145
 outer loop
  vertex 3 5 10.803942
  vertex 2.1205978 3 9
  vertex 3 3 9.879402
 endloop
endfacet
facet normal -0.57735026 -0.57735026 0.57735026
 outer loop
  vertex 2.1205978 3 9
  vertex 3 2.1205978 9
  vertex 3 3 9.879402
 endloop
endfacet
facet normal -0.31267542 0.8969216 0.31267533
 outer loop
  vertex 5 11.575547 7
  vertex 3.3490205 11 7
  vertex 5 11 8.65098
 endloop
endfacet
facet normal 0.32918042 0.94426703 -0
 outer loop
  vertex 7 11.575547 7
  vertex 8.65098 11 7
  vertex 8.65098 11 5
 endloop
endfacet
facet normal 0.32918042 0.94426703 0
 outer loop
  vertex 7 11.575547 7
  vertex 8.65098 11 5
  vertex 7 11.575547 5
 endloop
endfacet
facet normal -0.3291805 0.94426703 0
 outer loop
  vertex 3.3490205 11 5
  vertex 3.3490205 11 7
  vertex 5 11.575547 7
 endloop
endfacet
facet normal -0.3291805 0.94426703 0
 outer loop
  vertex 3.3490205 11 5
  vertex 5 11.575547 7
  vertex 5 11.575547 5
 endloop
endfacet
facet normal 0.31267533 0.8969216 -0.31267542
 outer loop
  vertex 7 11.575547 5
  vertex 8.65098 11 5
  vertex 7 11 3.3490205
 endloop
endfacet
facet normal -0.31267542 0.8969216 -0.31267542
 outer loop
  vertex 3.3490205 11 5
  vertex 5 11.575547 5
  vertex 5 11 3.3490205
 endloop
endfacet
facet normal 0.3106968 0.67211145 -0.67211145
 outer loop
  vertex 7 10.803942 3
  vertex 9 9.879402 3
  vertex 9 9 2.1205978
 endloop
endfacet
facet normal 0.31069678 0.6721114 -0.6721114
 outer loop
  vertex 7 10.803942 3
  vertex 9 9 2.1205978
  vertex 7 9 1.1960583
 endloop
endfacet
facet normal 0.57735026 0.57735026 -0.57735026
 outer loop
  vertex 9 9.879402 3
  vertex 9.879402 9 3
  vertex 9 9 2.1205978
 endloop
endfacet
facet normal 0.67211145 0.3106968 -0.67211145
 outer loop
  vertex 9 9 2.1205978
  vertex 9.879402 9 3
  vertex 10.803942 7 3
 endloop
endfacet
facet normal 0.6721114 0.31069678 -0.6721114
 outer loop
  vertex 9 9 2.1205978
  vertex 10.803942 7 3
  vertex 9 7 1.1960583
 endloop
endfacet
facet normal 0.70710677 0 -0.70710677
 outer loop
  vertex 9 7 1.1960583
  vertex 10.803942 7 3
  vertex 10.803942 5 3
 endloop
endfacet
facet normal 0.70710677 0 -0.70710677
 outer loop
  vertex 9 7 1.1960583
  vertex 10.803942 5 3
  vertex 9 5 1.1960583
 endloop
endfacet
facet normal 0.6721114 -0.31069678 -0.6721114
 outer loop
  vertex 9 5 1.1960583
  vertex 10.803942 5 3
  vertex 9.879402 3 3
 endloop
endfacet
facet normal 0.67211145 -0.3106968 -0.67211145
 outer loop
  vertex 9 5 1.1960583
  vertex 9.879402 3 3
  vertex 9 3 2.1205978
 endloop
endfacet
facet normal 0.57735026 -0.57735026 -0.57735026
 outer loop
  vertex 9.879402 3 3
  vertex 9 2.1205978 3
  vertex 9 3 2.1205978
 endloop
endfacet
facet normal 0.6721114 -0.6721114 -0.31069678
 outer loop
  vertex 9.879402 3 3
  vertex 10.803942 3 5
  vertex 9 1.1960583 5
 endloop
endfacet
facet normal 0.67211145 -0.67211145 -0.3106968
 outer loop
  vertex 9.879402 3 3
  vertex 9 1.1960583 5
  vertex 9 2.1205978 3
 endloop
endfacet
facet normal 0.70710677 -0.70710677 0
 outer loop
  vertex 10.803942 3 5
  vertex 10.803942 3 7
  vertex 9 1.1960583 7
 endloop
endfacet
facet normal 0.70710677 -0.70710677 0
 outer loop
  vertex 10.803942 3 5
  vertex 9 1.1960583 7
  vertex 9 1.1960583 5
 endloop
endfacet
facet normal 0.67211145 -0.67211145 0.3106968
 outer loop
  vertex 10.803942 3 7
  vertex 9.879402 3 9
  vertex 9 2.1205978 9
 endloop
endfacet
facet normal 0.6721114 -0.6721114 0.31069678
 outer loop
  vertex 10.803942 3 7
  vertex 9 2.1205978 9
  vertex 9 1.1960583 7
 endloop
endfacet
facet normal 0.57735026 -0.57735026 0.57735026
 outer loop
  vertex 9 2.1205978 9
  vertex 9.879402 3 9
  vertex 9 3 9.879402
 endloop
endfacet
facet normal 0.4897574 -0.8718588 0
 outer loop
  vertex 9 1.1960583 7
  vertex 8.65098 1 7
  vertex 8.65098 1 5
 endloop
endfacet
facet normal 0.4897574 -0.8718588 0
 outer loop
  vertex 9 1.1960583 7
  vertex 8.65098 1 5
  vertex 9 1.1960583 5
 endloop
endfacet
facet normal 0.4897574 0 -0.8718588
 outer loop
  vertex 8.65098 5 1
  vertex 8.65098 7 1
  vertex 9 7 1.1960583
 endloop
endfacet
facet normal 0.4897574 0 -0.8718588
 outer loop
  vertex 8.65098 5 1
  vertex 9 7 1.1960583
  vertex 9 5 1.1960583
 endloop
endfacet
facet normal -0.31069678 0.6721114 -0.6721114
 outer loop
  vertex 3 9.879402 3
  vertex 5 10.803942 3
  vertex 5 9 1.1960583
 endloop
endfacet
facet normal -0.3106968 0.67211145 -0.67211145
 outer loop
  vertex 3 9.879402 3
  vertex 5 9 1.1960583
  vertex 3 9 2.1205978
 endloop
endfacet
facet normal 0.43983954 0.43983954 -0.78299576
 outer loop
  vertex 9 7 1.1960583
  vertex 8.65098 7 1
  vertex 7 8.65098 1
 endloop
endfacet
facet normal 0.43983954 0.43983954 -0.78299576
 outer loop
  vertex 9 7 1.1960583
  vertex 7 8.65098 1
  vertex 7 9 1.1960583
 endloop
endfacet
facet normal 0.38692313 0.38692313 -0.83700716
 outer loop
  vertex 9 9 2.1205978
  vertex 9 7 1.1960583
  vertex 7 9 1.1960583
 endloop
endfacet
facet normal -0.43983966 0.43983948 -0.7829957
 outer loop
  vertex 5 9 1.1960583
  vertex 5 8.65098 1
  vertex 3.3490205 7 1
 endloop
endfacet
facet normal -0.43983918 0.43983918 -0.7829962
 outer loop
  vertex 5 9 1.1960583
  vertex 3.3490205 7 1
  vertex 3 7 1.1960583
 endloop
endfacet
facet normal -0.38692313 0.38692313 -0.83700716
 outer loop
  vertex 3 9 2.1205978
  vertex 5 9 1.1960583
  vertex 3 7 1.1960583
 endloop
endfacet
facet normal -0.31267542 0.31267533 -0.8969216
 outer loop
  vertex 3.3490205 7 1
  vertex 5 8.65098 1
  vertex 5 7 0.42445278
 endloop
endfacet
facet normal 0.32918042 0 -0.94426703
 outer loop
  vertex 7 7 0.42445278
  vertex 8.65098 7 1
  vertex 8.65098 5 1
 endloop
endfacet
facet normal 0.32918042 0 -0.94426703
 outer loop
  vertex 7 7 0.42445278
  vertex 8.65098 5 1
  vertex 7 5 0.42445278
 endloop
endfacet
facet normal -0.3291805 -0 -0.94426703
 outer loop
  vertex 3.3490205 5 1
  vertex 3.3490205 7 1
  vertex 5 7 0.42445278
 endloop
endfacet
facet normal -0.3291805 0 -0.94426703
 outer loop
  vertex 3.3490205 5 1
  vertex 5 7 0.42445278
  vertex 5 5 0.42445278
 endloop
endfacet
facet normal 0.31267533 -0.31267542 -0.8969216
 outer loop
  vertex 8.65098 5 1
  vertex 7 3.3490205 1
  vertex 7 5 0.42445278
 endloop
endfacet
facet normal -0.31267542 -0.31267542 -0.8969216
 outer loop
  vertex 5 3.3490205 1
  vertex 3.3490205 5 1
  vertex 5 5 0.42445278
 endloop
endfacet
facet normal 0.45425153 -0.37381527 -0.80865175
 outer loop
  vertex 8.65098 5 1
  vertex 9 5 1.1960583
  vertex 9 3 2.1205978
 endloop
endfacet
facet normal 0.38472602 -0.39917263 -0.8322543
 outer loop
  vertex 8.65098 5 1
  vertex 9 3 2.1205978
  vertex 7 3 1.1960583
 endloop
endfacet
facet normal 0.4398391 -0.43983927 -0.78299624
 outer loop
  vertex 7 3.3490205 1
  vertex 8.65098 5 1
  vertex 7 3 1.1960583
 endloop
endfacet
facet normal -0.43983918 -0.43983918 -0.7829962
 outer loop
  vertex 3.3490205 5 1
  vertex 5 3.3490205 1
  vertex 5 3 1.1960583
 endloop
endfacet
facet normal -0.38472602 -0.39917254 -0.8322543
 outer loop
  vertex 3.3490205 5 1
  vertex 5 3 1.1960583
  vertex 3 3 2.1205978
 endloop
endfacet
facet normal -0.45425105 -0.37381536 -0.80865204
 outer loop
  vertex 3 5 1.1960583
  vertex 3.3490205 5 1
  vertex 3 3 2.1205978
 endloop
endfacet
facet normal -0.31069678 -0.6721114 -0.6721114
 outer loop
  vertex 5 3 1.1960583
  vertex 5 1.1960583 3
  vertex 3 2.1205978 3
 endloop
endfacet
facet normal -0.3106968 -0.67211145 -0.67211145
 outer loop
  vertex 5 3 1.1960583
  vertex 3 2.1205978 3
  vertex 3 3 2.1205978
 endloop
endfacet
facet normal 0.45425153 -0.80865175 -0.37381527
 outer loop
  vertex 9 2.1205978 3
  vertex 9 1.1960583 5
  vertex 8.65098 1 5
 endloop
endfacet
facet normal 0.39546573 -0.8289835 -0.39546585
 outer loop
  vertex 9 2.1205978 3
  vertex 8.65098 1 5
  vertex 7 1 3.3490205
 endloop
endfacet
facet normal 0.3738154 -0.80865204 -0.45425105
 outer loop
  vertex 7 1.1960583 3
  vertex 9 2.1205978 3
  vertex 7 1 3.3490205
 endloop
endfacet
facet normal -0.43983918 -0.7829962 -0.43983918
 outer loop
  vertex 5 1 3.3490205
  vertex 3.3490205 1 5
  vertex 3 1.1960583 5
 endloop
endfacet
facet normal -0.39917254 -0.8322543 -0.38472602
 outer loop
  vertex 5 1 3.3490205
  vertex 3 1.1960583 5
  vertex 3 2.1205978 3
 endloop
endfacet
facet normal -0.37381536 -0.80865204 -0.45425105
 outer loop
  vertex 5 1.1960583 3
  vertex 5 1 3.3490205
  vertex 3 2.1205978 3
 endloop
endfacet
facet normal 0.31267533 -0.8969216 -0.31267542
 outer loop
  vertex 8.65098 1 5
  vertex 7 0.42445278 5
  vertex 7 1 3.3490205
 endloop
endfacet
facet normal -0.31267542 -0.8969216 -0.31267542
 outer loop
  vertex 5 0.42445278 5
  vertex 3.3490205 1 5
  vertex 5 1 3.3490205
 endloop
endfacet
facet normal 0.32918042 -0.94426703 0
 outer loop
  vertex 8.65098 1 5
  vertex 8.65098 1 7
  vertex 7 0.42445278 7
 endloop
endfacet
facet normal 0.32918042 -0.94426703 0
 outer loop
  vertex 8.65098 1 5
  vertex 7 0.42445278 7
  vertex 7 0.42445278 5
 endloop
endfacet
facet normal -0.3291805 -0.94426703 0
 outer loop
  vertex 5 0.42445278 7
  vertex 3.3490205 1 7
  vertex 3.3490205 1 5
 endloop
endfacet
facet normal -0.3291805 -0.94426703 0
 outer loop
  vertex 5 0.42445278 7
  vertex 3.3490205 1 5
  vertex 5 0.42445278 5
 endloop
endfacet
facet normal -0.31267542 -0.8969216 0.31267533
 outer loop
  vertex 3.3490205 1 7
  vertex 5 0.42445278 7
  vertex 5 1 8.65098
 endloop
endfacet
facet normal 0.38692313 -0.83700716 0.38692313
 outer loop
  vertex 9 1.1960583 7
  vertex 9 2.1205978 9
  vertex 7 1.1960583 9
 endloop
endfacet
facet normal 0.43983954 -0.78299576 0.43983954
 outer loop
  vertex 9 1.1960583 7
  vertex 7 1.1960583 9
  vertex 7 1 8.65098
 endloop
endfacet
facet normal 0.43983954 -0.78299576 0.4398395
 outer loop
  vertex 8.65098 1 7
  vertex 9 1.1960583 7
  vertex 7 1 8.65098
 endloop
endfacet
facet normal -0.37381527 -0.80865175 0.45425153
 outer loop
  vertex 5 1 8.65098
  vertex 5 1.1960583 9
  vertex 3 2.1205978 9
 endloop
endfacet
facet normal -0.39917263 -0.8322543 0.38472602
 outer loop
  vertex 5 1 8.65098
  vertex 3 2.1205978 9
  vertex 3 1.1960583 7
 endloop
endfacet
facet normal -0.4398392 -0.7829962 0.43983907
 outer loop
  vertex 3.3490205 1 7
  vertex 5 1 8.65098
  vertex 3 1.1960583 7
 endloop
endfacet
facet normal 0.3106968 -0.67211145 0.67211145
 outer loop
  vertex 7 1.1960583 9
  vertex 9 2.1205978 9
  vertex 9 3 9.879402
 endloop
endfacet
facet normal 0.31069678 -0.6721114 0.6721114
 outer loop
  vertex 7 1.1960583 9
  vertex 9 3 9.879402
  vertex 7 3 10.803942
 endloop
endfacet
facet normal -0.31069678 -0.6721114 0.6721114
 outer loop
  vertex 3 2.1205978 9
  vertex 5 1.1960583 9
  vertex 5 3 10.803942
 endloop
endfacet
facet normal -0.3106968 -0.67211145 0.67211145
 outer loop
  vertex 3 2.1205978 9
  vertex 5 3 10.803942
  vertex 3 3 9.879402
 endloop
endfacet
facet normal -0.31267542 -0.31267542 0.8969216
 outer loop
  vertex 3.3490205 5 11
  vertex 5 3.3490205 11
  vertex 5 5 11.575547
 endloop
endfacet
facet normal -0 0 1
 outer loop
  vertex 7 5 11.575547
  vertex 7 7 11.575547
  vertex 5 7 11.575547
 endloop
endfacet
facet normal -0 0 1
 outer loop
  vertex 7 5 11.575547
  vertex 5 7 11.575547
  vertex 5 5 11.575547
 endloop
endfacet
facet normal 0.45425153 0.37381527 0.80865175
 outer loop
  vertex 8.65098 7 11
  vertex 9 7 10.803942
  vertex 9 9 9.879402
 endloop
endfacet
facet normal 0.38472602 0.39917263 0.8322543
 outer loop
  vertex 8.65098 7 11
  vertex 9 9 9.879402
  vertex 7 9 10.803942
 endloop
endfacet
facet normal 0.43983954 0.43983954 0.78299576
 outer loop
  vertex 7 8.65098 11
  vertex 8.65098 7 11
  vertex 7 9 10.803942
 endloop
endfacet
facet normal 0.8718591 -0.48975688 0
 outer loop
  vertex 11 3.3490205 7
  vertex 10.803942 3 7
  vertex 10.803942 3 5
 endloop
endfacet
facet normal 0.8718591 -0.48975688 0
 outer loop
  vertex 11 3.3490205 7
  vertex 10.803942 3 5
  vertex 11 3.3490205 5
 endloop
endfacet
facet normal 0.8718591 0 -0.48975688
 outer loop
  vertex 10.803942 5 3
  vertex 10.803942 7 3
  vertex 11 7 3.3490205
 endloop
endfacet
facet normal 0.8718591 0 -0.48975688
 outer loop
  vertex 10.803942 5 3
  vertex 11 7 3.3490205
  vertex 11 5 3.3490205
 endloop
endfacet
facet normal 1 -0 0
 outer loop
  vertex 11.575547 7 5
  vertex 11.575547 7 7
  vertex 11.575547 5 7
 endloop
endfacet
facet normal 1 -0 0
 outer loop
  vertex 11.575547 7 5
  vertex 11.575547 5 7
  vertex 11.575547 5 5
 endloop
endfacet
facet normal 0.4897574 0.8718588 0
 outer loop
  vertex 8.65098 11 5
  vertex 8.65098 11 7
  vertex 9 10.803942 7
 endloop
endfacet
facet normal 0.4897574 0.8718588 -0
 outer loop
  vertex 8.65098 11 5
  vertex 9 10.803942 7
  vertex 9 10.803942 5
 endloop
endfacet
facet normal 0.83700716 0.38692313 0.38692313
 outer loop
  vertex 10.803942 9 7
  vertex 9.879402 9 9
  vertex 10.803942 7 9
 endloop
endfacet
facet normal 0.78299576 0.43983954 0.43983954
 outer loop
  vertex 10.803942 9 7
  vertex 10.803942 7 9
  vertex 11 7 8.65098
 endloop
endfacet
facet normal 0.78299576 0.43983954 0.4398395
 outer loop
  vertex 11 8.65098 7
  vertex 10.803942 9 7
  vertex 11 7 8.65098
 endloop
endfacet
facet normal 0.45425153 0.80865175 0.37381527
 outer loop
  vertex 9 9.879402 9
  vertex 9 10.803942 7
  vertex 8.65098 11 7
 endloop
endfacet
facet normal 0.39546582 0.8289835 0.39546582
 outer loop
  vertex 9 9.879402 9
  vertex 8.65098 11 7
  vertex 7 11 8.65098
 endloop
endfacet
facet normal 0.37381527 0.80865175 0.45425153
 outer loop
  vertex 7 10.803942 9
  vertex 9 9.879402 9
  vertex 7 11 8.65098
 endloop
endfacet
facet normal 0.6721114 0.6721114 -0.31069678
 outer loop
  vertex 9 10.803942 5
  vertex 10.803942 9 5
  vertex 9.879402 9 3
 endloop
endfacet
facet normal 0.67211145 0.67211145 -0.3106968
 outer loop
  vertex 9 10.803942 5
  vertex 9.879402 9 3
  vertex 9 9.879402 3
 endloop
endfacet
facet normal 0.67211145 0.3106968 0.67211145
 outer loop
  vertex 10.803942 7 9
  vertex 9.879402 9 9
  vertex 9 9 9.879402
 endloop
endfacet
facet normal 0.6721114 0.31069678 0.6721114
 outer loop
  vertex 10.803942 7 9
  vertex 9 9 9.879402
  vertex 9 7 10.803942
 endloop
endfacet
facet normal 0.8969215 0.31267533 0.31267533
 outer loop
  vertex 11.575547 7 7
  vertex 11 8.65098 7
  vertex 11 7 8.65098
 endloop
endfacet
facet normal 0.80865175 0.45425153 -0.37381527
 outer loop
  vertex 9.879402 9 3
  vertex 10.803942 9 5
  vertex 11 8.65098 5
 endloop
endfacet
facet normal 0.8289835 0.39546573 -0.39546585
 outer loop
  vertex 9.879402 9 3
  vertex 11 8.65098 5
  vertex 11 7 3.3490205
 endloop
endfacet
facet normal 0.80865204 0.3738154 -0.45425105
 outer loop
  vertex 10.803942 7 3
  vertex 9.879402 9 3
  vertex 11 7 3.3490205
 endloop
endfacet
facet normal 0.6721114 -0.31069678 0.6721114
 outer loop
  vertex 9.879402 3 9
  vertex 10.803942 5 9
  vertex 9 5 10.803942
 endloop
endfacet
facet normal 0.67211145 -0.3106968 0.67211145
 outer loop
  vertex 9.879402 3 9
  vertex 9 5 10.803942
  vertex 9 3 9.879402
 endloop
endfacet
facet normal 0.80865204 -0.45425105 0.3738154
 outer loop
  vertex 9.879402 3 9
  vertex 10.803942 3 7
  vertex 11 3.3490205 7
 endloop
endfacet
facet normal 0.8289835 -0.39546585 0.39546573
 outer loop
  vertex 9.879402 3 9
  vertex 11 3.3490205 7
  vertex 11 5 8.65098
 endloop
endfacet
facet normal 0.80865175 -0.37381527 0.45425153
 outer loop
  vertex 10.803942 5 9
  vertex 9.879402 3 9
  vertex 11 5 8.65098
 endloop
endfacet
facet normal 0.83700716 -0.38692313 -0.38692313
 outer loop
  vertex 10.803942 3 5
  vertex 9.879402 3 3
  vertex 10.803942 5 3
 endloop
endfacet
facet normal 0.7829962 -0.43983918 -0.43983918
 outer loop
  vertex 10.803942 3 5
  vertex 10.803942 5 3
  vertex 11 5 3.3490205
 endloop
endfacet
facet normal 0.7829962 -0.43983918 -0.4398392
 outer loop
  vertex 11 3.3490205 5
  vertex 10.803942 3 5
  vertex 11 5 3.3490205
 endloop
endfacet
facet normal 0.3106968 0.67211145 0.67211145
 outer loop
  vertex 9 9 9.879402
  vertex 9 9.879402 9
  vertex 7 10.803942 9
 endloop
endfacet
facet normal 0.31069678 0.6721114 0.6721114
 outer loop
  vertex 9 9 9.879402
  vertex 7 10.803942 9
  vertex 7 9 10.803942
 endloop
endfacet
facet normal 0.31267533 0.8969215 0.31267533
 outer loop
  vertex 8.65098 11 7
  vertex 7 11.575547 7
  vertex 7 11 8.65098
 endloop
endfacet
facet normal 0.38692313 0.83700716 -0.38692313
 outer loop
  vertex 9 10.803942 5
  vertex 9 9.879402 3
  vertex 7 10.803942 3
 endloop
endfacet
facet normal 0.43983918 0.7829962 -0.43983918
 outer loop
  vertex 9 10.803942 5
  vertex 7 10.803942 3
  vertex 7 11 3.3490205
 endloop
endfacet
facet normal 0.43983948 0.7829957 -0.4398396
 outer loop
  vertex 8.65098 11 5
  vertex 9 10.803942 5
  vertex 7 11 3.3490205
 endloop
endfacet
facet normal 0.31267533 0.31267533 0.8969215
 outer loop
  vertex 8.65098 7 11
  vertex 7 8.65098 11
  vertex 7 7 11.575547
 endloop
endfacet
facet normal 0.31267533 0.31267533 -0.8969215
 outer loop
  vertex 7 8.65098 1
  vertex 8.65098 7 1
  vertex 7 7 0.42445278
 endloop
endfacet
facet normal 0.43983948 -0.43983966 0.7829957
 outer loop
  vertex 9 5 10.803942
  vertex 8.65098 5 11
  vertex 7 3.3490205 11
 endloop
endfacet
facet normal 0.43983918 -0.43983918 0.7829962
 outer loop
  vertex 9 5 10.803942
  vertex 7 3.3490205 11
  vertex 7 3 10.803942
 endloop
endfacet
facet normal 0.38692313 -0.38692313 0.83700716
 outer loop
  vertex 9 3 9.879402
  vertex 9 5 10.803942
  vertex 7 3 10.803942
 endloop
endfacet
facet normal 0.31267533 -0.8969215 0.31267533
 outer loop
  vertex 7 0.42445278 7
  vertex 8.65098 1 7
  vertex 7 1 8.65098
 endloop
endfacet
facet normal 0.3106968 -0.67211145 -0.67211145
 outer loop
  vertex 9 3 2.1205978
  vertex 9 2.1205978 3
  vertex 7 1.1960583 3
 endloop
endfacet
facet normal 0.31069678 -0.6721114 -0.6721114
 outer loop
  vertex 9 3 2.1205978
  vertex 7 1.1960583 3
  vertex 7 3 1.1960583
 endloop
endfacet
facet normal -0.31069678 0.6721114 0.6721114
 outer loop
  vertex 5 9 10.803942
  vertex 5 10.803942 9
  vertex 3 9.879402 9
 endloop
endfacet
facet normal -0.3106968 0.67211145 0.67211145
 outer loop
  vertex 5 9 10.803942
  vertex 3 9.879402 9
  vertex 3 9 9.879402
 endloop
endfacet
facet normal -0.43983966 0.7829957 0.43983948
 outer loop
  vertex 5 10.803942 9
  vertex 5 11 8.65098
  vertex 3.3490205 11 7
 endloop
endfacet
facet normal -0.43983918 0.7829962 0.43983918
 outer loop
  vertex 5 10.803942 9
  vertex 3.3490205 11 7
  vertex 3 10.803942 7
 endloop
endfacet
facet normal -0.38692313 0.83700716 0.38692313
 outer loop
  vertex 3 9.879402 9
  vertex 5 10.803942 9
  vertex 3 10.803942 7
 endloop
endfacet
facet normal -0.43983918 0.7829962 -0.43983918
 outer loop
  vertex 3.3490205 11 5
  vertex 5 11 3.3490205
  vertex 5 10.803942 3
 endloop
endfacet
facet normal -0.38472602 0.8322543 -0.39917254
 outer loop
  vertex 3.3490205 11 5
  vertex 5 10.803942 3
  vertex 3 9.879402 3
 endloop
endfacet
facet normal -0.45425105 0.80865204 -0.37381536
 outer loop
  vertex 3 10.803942 5
  vertex 3.3490205 11 5
  vertex 3 9.879402 3
 endloop
endfacet
facet normal -0.37381527 0.45425153 0.80865175
 outer loop
  vertex 5 8.65098 11
  vertex 5 9 10.803942
  vertex 3 9 9.879402
 endloop
endfacet
facet normal -0.39917263 0.38472602 0.8322543
 outer loop
  vertex 5 8.65098 11
  vertex 3 9 9.879402
  vertex 3 7 10.803942
 endloop
endfacet
facet normal -0.43983927 0.4398391 0.78299624
 outer loop
  vertex 3.3490205 7 11
  vertex 5 8.65098 11
  vertex 3 7 10.803942
 endloop
endfacet
facet normal -0.8969215 0.31267533 0.31267533
 outer loop
  vertex 1 8.65098 7
  vertex 0.42445278 7 7
  vertex 1 7 8.65098
 endloop
endfacet
facet normal -0.67211145 0.3106968 -0.67211145
 outer loop
  vertex 1.1960583 7 3
  vertex 2.1205978 9 3
  vertex 3 9 2.1205978
 endloop
endfacet
facet normal -0.6721114 0.31069678 -0.6721114
 outer loop
  vertex 1.1960583 7 3
  vertex 3 9 2.1205978
  vertex 3 7 1.1960583
 endloop
endfacet
facet normal -0.43983918 -0.43983918 0.7829962
 outer loop
  vertex 5 3.3490205 11
  vertex 3.3490205 5 11
  vertex 3 5 10.803942
 endloop
endfacet
facet normal -0.39917254 -0.38472602 0.8322543
 outer loop
  vertex 5 3.3490205 11
  vertex 3 5 10.803942
  vertex 3 3 9.879402
 endloop
endfacet
facet normal -0.37381536 -0.45425105 0.80865204
 outer loop
  vertex 5 3 10.803942
  vertex 5 3.3490205 11
  vertex 3 3 9.879402
 endloop
endfacet
facet normal -0.67211145 -0.67211145 0.3106968
 outer loop
  vertex 3 2.1205978 9
  vertex 2.1205978 3 9
  vertex 1.1960583 3 7
 endloop
endfacet
facet normal -0.6721114 -0.6721114 0.31069678
 outer loop
  vertex 3 2.1205978 9
  vertex 1.1960583 3 7
  vertex 3 1.1960583 7
 endloop
endfacet
facet normal -0.57735026 -0.57735026 -0.57735026
 outer loop
  vertex 3 2.1205978 3
  vertex 2.1205978 3 3
  vertex 3 3 2.1205978
 endloop
endfacet
endsolid 
